<svg xmlns="http://www.w3.org/2000/svg" width="512" height="512" viewBox="0 0 512 512" version="1.1">
	<path d="M 21 26 L 21 52 99.250 52.030 C 221.981 52.077, 261.639 53.636, 287.059 59.410 C 312.593 65.211, 341.596 80.594, 364.062 100.253 C 397.338 129.370, 424.460 175.619, 431.648 215.500 C 434.206 229.695, 434.243 272.624, 431.712 288.691 C 428.232 310.771, 422.422 327.619, 411.580 347.069 C 387.304 390.617, 349.281 423.663, 302.329 442.021 C 288.722 447.341, 279.187 449.653, 265.500 450.953 C 249.790 452.445, 193.444 453.812, 120.500 454.470 C 85.850 454.782, 49.237 455.305, 39.139 455.632 L 20.778 456.226 21.411 475.363 C 21.759 485.888, 22.306 497.988, 22.626 502.250 L 23.208 510 101.354 509.990 C 185.061 509.980, 260.493 508.642, 273.500 506.938 C 324.531 500.253, 376.346 473.626, 416.475 433.467 C 457.569 392.342, 480.824 344.896, 488.468 286.585 C 490.580 270.470, 490.557 229.066, 488.428 213.795 C 484.243 183.794, 472.002 150.270, 454.728 121.500 C 431.439 82.715, 398.759 50.709, 360.500 29.216 C 343.037 19.406, 315.144 7.957, 300.248 4.485 C 281.570 0.132, 277.043 0, 145.949 0 L 21 0 21 26 M 23.750 77.080 C 22.788 77.641, 22 78.585, 22 79.178 C 22 79.771, 27.200 95.386, 33.555 113.878 C 56.106 179.494, 56.341 180, 64.171 180 C 72.943 180, 75.038 175.694, 95.555 115.500 C 102.304 95.700, 108.165 78.641, 108.581 77.591 C 109.300 75.772, 108.905 75.710, 100.193 76.275 C 84.841 77.269, 84.597 77.551, 74.965 105.500 C 71.553 115.400, 67.843 125.300, 66.721 127.500 L 64.681 131.500 61.840 125.500 C 60.277 122.200, 55.785 109.713, 51.857 97.750 L 44.717 76 35.108 76.030 C 29.824 76.047, 24.712 76.519, 23.750 77.080 M 256.425 91.882 C 250.774 95.329, 245.718 111.086, 248.023 118.069 C 249.174 121.558, 249.085 122.082, 246.886 124.742 C 245.574 126.331, 242.057 129.626, 239.072 132.065 C 232.416 137.504, 226.847 145.898, 223.996 154.792 C 221.623 162.192, 215.253 175.287, 211.004 181.500 C 206.724 187.759, 203.109 195.463, 202.415 199.807 C 201.897 203.045, 202.170 204.170, 203.890 205.890 C 208.417 210.417, 205.703 213.332, 195.790 214.593 C 188.849 215.476, 187.731 216.448, 188.490 220.938 C 189.007 224.001, 188.682 224.923, 186.298 227.168 C 184.759 228.617, 179.325 231.833, 174.223 234.314 C 159.083 241.678, 156.455 244.083, 142.023 263.787 C 136.195 271.745, 128.775 277.969, 125.054 278.022 C 124.199 278.034, 121.568 278.921, 119.207 279.992 C 115.805 281.536, 114.461 282.933, 112.733 286.720 C 110.824 290.906, 110.568 293.117, 110.670 304.500 C 110.887 328.541, 116.388 373.891, 119.702 378.948 L 121.306 381.396 124.059 378.099 C 127.246 374.281, 133.224 359.226, 135.018 350.500 C 136.479 343.392, 135.839 332.684, 132.933 315.628 C 130.645 302.196, 130.103 294.557, 131.350 293.334 C 133.012 291.703, 139.132 300.576, 146.589 315.430 C 155.844 333.863, 156.278 336.252, 152.109 345.751 C 149.428 351.861, 149 354.007, 149 361.356 C 149 369.042, 152.496 393.139, 155.129 403.598 C 157.429 412.735, 162.900 425.547, 165.263 427.329 C 167.470 428.993, 168.001 429.027, 171.169 427.703 C 175.746 425.790, 180.068 420.413, 185.398 410 C 191.306 398.458, 193.380 391.776, 192.588 386.828 C 191.747 381.567, 186.786 371.876, 182.512 367.146 C 175.484 359.366, 175.786 354.426, 183.843 345.386 C 186.596 342.298, 193.024 333.691, 198.127 326.261 C 212.827 304.859, 217.830 300.854, 231.500 299.542 C 235.350 299.172, 243.177 297.549, 248.893 295.935 C 261.057 292.500, 263.648 292.316, 264.448 294.835 C 265.379 297.770, 262.317 318.517, 256.962 345.549 C 254.233 359.326, 252 371.348, 252 372.264 C 252 373.181, 253.350 375.312, 255 377 C 256.650 378.688, 258 381.118, 258 382.400 C 258 387.501, 264.977 393, 271.450 393 C 274.541 393, 275 392.686, 275 390.574 C 275 389.240, 273.166 384.403, 270.924 379.824 C 267.148 372.112, 266.882 371.022, 267.298 365 C 267.876 356.636, 281.569 317.693, 290.077 300.215 C 297.291 285.397, 298.760 284.262, 305.225 288.510 C 311.305 292.504, 327.310 309.027, 329.433 313.500 C 333.049 321.120, 329.595 334.142, 321.173 344.642 C 314.214 353.319, 312.859 367, 318.958 367 C 326.264 367, 341.155 340.785, 345.600 320.098 L 347.330 312.051 343.731 304.770 C 341.752 300.765, 336.215 291.416, 331.427 283.994 C 319.900 266.125, 317.715 261.217, 317.627 253 C 317.548 245.565, 317.778 245.039, 328.757 227.500 C 339.372 210.542, 342.078 208, 349.516 208 C 354.239 208, 356.341 209.176, 363.189 215.649 C 366.756 219.020, 370.113 221.264, 372.189 221.664 C 374.634 222.135, 377.887 224.747, 384.626 231.651 C 394.507 241.774, 396.956 242.855, 400.709 238.750 C 406.985 231.886, 407.075 228.022, 401.285 214.071 C 393.485 195.276, 388.248 176.587, 387.184 163.746 L 386.500 155.500 380.729 155.761 C 375.287 156.007, 374.901 155.869, 373.940 153.342 L 372.921 150.661 368.424 155.074 C 364.309 159.113, 363.529 159.474, 359.214 159.336 C 337.778 158.647, 332.066 158.891, 323 160.882 C 311.719 163.360, 309.663 163.417, 300.500 161.505 C 286.891 158.665, 267.567 146.865, 263.433 138.870 C 261.568 135.265, 262.046 134.402, 266.352 133.594 C 268.207 133.246, 270.445 132.166, 271.325 131.194 C 273.766 128.496, 276 122.464, 276 118.567 C 276 114.859, 277.982 113, 281.934 113 C 284.278 113, 284.674 111.497, 282.646 110.300 C 280.764 109.188, 279.001 105.577, 278.993 102.816 C 278.977 96.956, 270.576 90.011, 263.500 90.009 C 261.300 90.008, 258.116 90.851, 256.425 91.882 M 251.528 168.140 C 248.402 171.845, 242 184.532, 242 187.022 C 242 190.880, 247.263 192.126, 254.101 189.887 C 261.708 187.396, 285.021 176.624, 284.288 175.939 C 282.172 173.961, 262.161 165.660, 258.517 165.249 C 254.768 164.826, 254.086 165.109, 251.528 168.140 M 32 201.903 C 29.761 202.533, 29.525 203.071, 29.739 207.053 C 29.870 209.499, 30.258 232.812, 30.599 258.859 L 31.221 306.218 48.860 305.753 C 63.306 305.371, 67.515 304.917, 72.106 303.247 C 92.641 295.774, 102.296 279.761, 102.403 253 C 102.477 234.504, 98.260 222.486, 88.191 212.496 C 81.578 205.937, 76.226 203.170, 67.789 201.950 C 60.514 200.898, 35.687 200.865, 32 201.903 M 52.302 250.609 C 52.579 264.849, 53.136 277.788, 53.541 279.363 C 54.225 282.025, 54.549 282.190, 58.156 281.706 C 66.889 280.535, 76.757 271.083, 79.655 261.114 C 81.643 254.275, 80.966 249.051, 77.006 240.668 C 71.496 229.006, 68.522 226.611, 58.086 225.430 L 51.800 224.719 52.302 250.609 M 28 379 L 28 432 37.250 431.976 C 71.948 431.887, 81.525 428.449, 92.073 412.291 C 98.417 402.573, 101.001 394.688, 101.702 382.912 C 102.743 365.420, 96.991 348.876, 86.058 337.913 C 77.073 328.904, 65.881 326.026, 39.750 326.008 L 28 326 28 379 M 55.178 350.827 C 52.801 352.410, 52.048 359.191, 52.048 379 C 52.048 396.866, 52.767 405.100, 54.477 406.811 C 55.849 408.182, 62.992 407.168, 66.282 405.135 C 78.834 397.377, 83.043 372.642, 73.947 360.085 C 69.386 353.789, 58.668 348.502, 55.178 350.827 M 164.337 375.564 C 162.753 379.691, 169.031 403.398, 172.970 408.163 L 174.902 410.500 174.779 404.942 C 174.683 400.577, 175.153 398.712, 176.967 396.259 C 178.711 393.899, 179.124 392.372, 178.654 390.020 C 177.580 384.651, 169.057 374, 165.834 374 C 165.341 374, 164.667 374.704, 164.337 375.564" stroke="none" fill="black" fill-rule="evenodd"/>
</svg>